<svg width="296" height="57" viewBox="0 0 296 57" fill="none" xmlns="http://www.w3.org/2000/svg">
<path d="M261.5 55.8C257.1 53.5 255.8 49.1 258.1 44.9C259.1 42.9 259.2 43 261.1 45.4C264.8 50.1 273.9 51.1 278.3 47.2C281.8 44.1 279.9 41.9 272.7 40.6C270.2 40.1 268.3 38.9 266.8 37L264.6 34L261.7 37C258.3 40.5 254.2 40.9 251.7 38.2C249.6 35.9 249.6 33 251.7 23.5C252.6 19.4 253 15.7 252.7 15.3C250.1 12.7 243.7 26.6 244.1 33.9C244.4 37.6 244.1 38.5 242.2 39.3C239.8 40.4 237 38.8 237 36.2C237 35.2 236.2 35.5 234.4 37.4C232.8 39 230.6 40 228.9 40C226.2 40 223 37.8 223 35.9C223 35.4 222.1 35.9 221 37C219.9 38.1 218 39.2 216.6 39.6C213.7 40.3 210 38.5 210 36.5C210 34.5 209.5 34.6 206.6 37.5C200.9 43.2 195.3 38.9 196.3 29.7C196.7 26.8 197.2 23.5 197.6 22.3C198.1 20.6 197.8 20 196.7 20C195.8 20 195 21.4 194.5 23.8C192.9 32.7 185.8 39.9 177.8 40.7C172.6 41.2 169.3 39.6 166.3 35.1C160.9 27.2 165.7 12.3 174.1 10.5C179.3 9.3 183 10.8 184.7 14.8C186.6 19.5 185.6 24.5 182 28.2C178.6 31.6 175.7 31.8 173.6 28.8C171.5 25.8 171.6 25.3 174.3 24.4C177.8 23.4 180 20.9 180 17.9C180 14.1 178.3 13.4 175.2 15.7C170.3 19.4 168.8 29.6 172.6 33.5C174.6 35.5 181.9 35.4 184.9 33.4C186.2 32.5 187.8 30.2 188.6 28.4C190.2 24.7 190.176 18.8963 189.1 18C188.5 17.5 187.7 16.6 187 15C184.7 9.4 190 6.7 193.8 11.5L194.899 12.8732C195.437 13.546 196.345 13.7984 197.154 13.4998L200.4 12.3C206.7 9.9 207.3 10.9 205 19.6C202.3 29.9 202.1 33.4 204.2 33.8C205.1 34 206.6 33.1 207.5 31.7C209.7 28.2 214.2 7.4 213.5 3.9C212.9 1.5 213.2 0.999999 215.4 0.399999C218.8 -0.400001 221 1.5 221 5.1C221 6.7 219.9 13.2 218.5 19.6C217.1 26 216 31.8 216 32.6C216 34.8 219.8 34.2 221.4 31.7C223.5 28.6 225.8 18.1 225.3 14.4C224.9 11.8 225.2 11.2 227.1 10.7C232.9 9.2 234.3 13.8 231.5 25.5C229.6 33.5 229.6 35.2 231.7 34.8C235.9 34 239.8 23.2 239.1 14.4C238.9 11.9 239.3 11.1 241 10.7C244 9.9 245.8 10.8 246.6 13.3C247.2 15.1 247.4 15.2 248.4 13.9C251.7 9.3 258.5 9.1 259.6 13.6C260 14.9 259.5 20.2 258.6 25.2C257.7 30.2 257.1 34.5 257.4 34.7C258.9 36.3 261.1 33.3 262.9 27.3C264.1 23.6 266 18.7 267.3 16.5C269.9 11.9 274.3 8.9 276 10.6C276.9 11.5 276.4 13.2 274.1 17.1C269.5 25.5 268.7 33.9 272.5 35.4C276.9 37.1 281.8 25.4 278.6 20.8C276.6 17.9 276.6 15.1 278.6 12.2C281.5 8.1 286 10 288.3 16.3C288.8 17.8 292.2 15.7 293.1 13.3C294.3 10.1 296 11.3 296 15.4C296 19.1 293.2 22.7 289.6 23.6C287.8 24 286.9 25.2 286.1 28.4C285.6 30.7 283.9 33.6 282.6 34.9L280.1 37.3L282.5 40.2C285.4 43.6 285.5 44.8 283.6 49.5C281.5 54.5 276.8 57 269.5 57C266.2 57 262.6 56.4 261.5 55.8Z" fill="#34C36E"/>
<path d="M261.5 55.8C257.1 53.5 255.8 49.1 258.1 44.9C259.1 42.9 259.2 43 261.1 45.4C264.8 50.1 273.9 51.1 278.3 47.2C281.8 44.1 279.9 41.9 272.7 40.6C270.2 40.1 268.3 38.9 266.8 37L264.6 34L261.7 37C258.3 40.5 254.2 40.9 251.7 38.2C249.6 35.9 249.6 33 251.7 23.5C252.6 19.4 253 15.7 252.7 15.3C250.1 12.7 243.7 26.6 244.1 33.9C244.4 37.6 244.1 38.5 242.2 39.3C239.8 40.4 237 38.8 237 36.2C237 35.2 236.2 35.5 234.4 37.4C232.8 39 230.6 40 228.9 40C226.2 40 223 37.8 223 35.9C223 35.4 222.1 35.9 221 37C219.9 38.1 218 39.2 216.6 39.6C213.7 40.3 210 38.5 210 36.5C210 34.5 209.5 34.6 206.6 37.5C200.9 43.2 195.3 38.9 196.3 29.7C196.7 26.8 197.2 23.5 197.6 22.3C198.1 20.6 197.8 20 196.7 20C195.8 20 195 21.4 194.5 23.8C192.9 32.7 185.8 39.9 177.8 40.7C172.6 41.2 169.3 39.6 166.3 35.1C160.9 27.2 165.7 12.3 174.1 10.5C179.3 9.3 183 10.8 184.7 14.8C186.6 19.5 185.6 24.5 182 28.2C178.6 31.6 175.7 31.8 173.6 28.8C171.5 25.8 171.6 25.3 174.3 24.4C177.8 23.4 180 20.9 180 17.9C180 14.1 178.3 13.4 175.2 15.7C170.3 19.4 168.8 29.6 172.6 33.5C174.6 35.5 181.9 35.4 184.9 33.4C186.2 32.5 187.8 30.2 188.6 28.4C190.2 24.7 190.176 18.8963 189.1 18C188.5 17.5 187.7 16.6 187 15C184.7 9.4 190 6.7 193.8 11.5L194.899 12.8732C195.437 13.546 196.345 13.7984 197.154 13.4998L200.4 12.3C206.7 9.9 207.3 10.9 205 19.6C202.3 29.9 202.1 33.4 204.2 33.8C205.1 34 206.6 33.1 207.5 31.7C209.7 28.2 214.2 7.4 213.5 3.9C212.9 1.5 213.2 0.999999 215.4 0.399999C218.8 -0.400001 221 1.5 221 5.1C221 6.7 219.9 13.2 218.5 19.6C217.1 26 216 31.8 216 32.6C216 34.8 219.8 34.2 221.4 31.7C223.5 28.6 225.8 18.1 225.3 14.4C224.9 11.8 225.2 11.2 227.1 10.7C232.9 9.2 234.3 13.8 231.5 25.5C229.6 33.5 229.6 35.2 231.7 34.8C235.9 34 239.8 23.2 239.1 14.4C238.9 11.9 239.3 11.1 241 10.7C244 9.9 245.8 10.8 246.6 13.3C247.2 15.1 247.4 15.2 248.4 13.9C251.7 9.3 258.5 9.1 259.6 13.6C260 14.9 259.5 20.2 258.6 25.2C257.7 30.2 257.1 34.5 257.4 34.7C258.9 36.3 261.1 33.3 262.9 27.3C264.1 23.6 266 18.7 267.3 16.5C269.9 11.9 274.3 8.9 276 10.6C276.9 11.5 276.4 13.2 274.1 17.1C269.5 25.5 268.7 33.9 272.5 35.4C276.9 37.1 281.8 25.4 278.6 20.8C276.6 17.9 276.6 15.1 278.6 12.2C281.5 8.1 286 10 288.3 16.3C288.8 17.8 292.2 15.7 293.1 13.3C294.3 10.1 296 11.3 296 15.4C296 19.1 293.2 22.7 289.6 23.6C287.8 24 286.9 25.2 286.1 28.4C285.6 30.7 283.9 33.6 282.6 34.9L280.1 37.3L282.5 40.2C285.4 43.6 285.5 44.8 283.6 49.5C281.5 54.5 276.8 57 269.5 57C266.2 57 262.6 56.4 261.5 55.8Z" fill="#34C36E"/>
<path d="M3.69999 44.8C-0.900007 43.6 -1.00001 42 3.59999 39.5C8.49999 36.9 13.4 31.2 17.1 23.8C21 15.9 24.7 11 26.6 11C28.4 11 28.4 10.8 25.6 17.1C24.3 20.1 22.9 24.1 22.6 26C22.1 28.6 23.1 27.3 26.6 20.6C32.4 9.7 36.8 6 44.1 6C48.2 6 49.2 6.4 51.5 9.2C54.2 12.4 54.2 12.7 53.6 21.7C52.9 31.5 54 36 57 36C60.4 36 62.4 32.2 62.8 25.2C63.3 16.9 61.2 17.5 60.5 26C59.9647 32.5 58.5 34.9 57.5 29.1C56.3 21.8 59.9 14 64.6 14C70.4 14 73.1 25 68.9 31.9C66.5 35.9 67.1 37 70.8 34.9C75.3 32.4 77.4 22.3 74.9 15.1C73.6 11.5 73.7 11.5 76.6 10.6C81.7 9 84.9 17.2 82.9 26.9C82 31.2 80.9 33.4 77.9 36.3C74.2 40 73.8 40.2 69.3 39.6C63.1 38.8 62.2 38.8 57.7 39.6C52.5 40.5 48.5 38.6 46.4 34.2C44.9 31 44.9 29.8 46 22.6C47.4 13.4 47.2 11.2 44.8 9.6C41.2 7.4 37 15.3 37 24.2C37 32.2 29 42.8 21.3 44.9C16.7 46.2 8.79999 46.1 3.69999 44.8Z" fill="#34C36E"/>
<path d="M88.4 37.4C86.1 35.2 85.9 34.3 86.4 30.2C86.7 27.6 87.2 22.2 87.6 18.3C88.1 12.5 88.6 10.9 90.1 10.5C94.9 8.9 96.3 13.6 94.3 24.3C92.6 33 92.9 36.4 95.3 35.4C97.9 34.4 100.3 27.6 100.8 19.7C101.2 13.4 101.6 11.7 103.1 10.9C104.4 10.3 105.6 10.3 107 11C109.5 12.3 109.6 16.4 107.4 26.2C106 32.4 106 33.4 107.3 34.7C108.6 36.1 109 36 110.4 33.8C112.5 30.5 115 18.5 114.3 14.9C113.9 12.8 114.3 11.9 115.9 11.1C118.4 9.7 122 11.2 122 13.7C122 15.2 122.2 15.2 123.8 13.7C126.8 10.9 131.8 9.6 133.5 11C135.5 12.6 135.4 19 133.5 27.6C132.6 31.2 132.1 34.5 132.4 34.7C133.8 36.1 136 33.7 137 29.8C139.3 20.4 140.1 18.2 142.2 15C144.7 11.3 148.3 9.8 151.8 11.1C154.8 12.2 154.6 13.6 151.3 15.2C148 16.8 145.1 23.5 145.1 29.8C145 35.3 147.3 36.5 150.6 32.7C153.2 29.7 157.3 13.2 157.4 5.5C157.5 0.6 157.6 0.5 160.5 0.5C165.4 0.5 165.8 3.8 162.6 18.4C161.1 25.3 160 32.5 160.1 34.5C160.6 39.9 156 42.2 153.9 37.6L152.8 35.3L150.4 37.6C147.5 40.6 143.6 40.7 140.6 37.7L138.3 35.4L136 37.7C133.2 40.6 128.9 40.7 126.4 37.9C124.6 35.9 124.6 35.6 126.3 27.6C127.2 23 128 18.2 128 17C128 13.4 125.7 15.2 122.6 21.4C120.3 25.8 119.7 28.5 119.7 33.1C119.7 38.5 119.5 39.1 117.3 39.6C115.8 40 114.3 39.6 113.1 38.6C111.5 37.1 111.2 37.1 110 38.5C108.2 40.6 104.4 40.4 102 38L100 36L97.8 38C94.9 40.7 91.4 40.5 88.4 37.4Z" fill="#34C36E"/>
<path d="M227.6 6.7C224 4.1 228 -1.7 231.8 0.6C234.1 2.1 234.4 4.4 232.5 6.4C230.5 8.3 229.9 8.4 227.6 6.7Z" fill="#34C36E"/>
</svg>
